<svg width="1417" height="900" viewBox="0 0 1417 900" fill="none" xmlns="http://www.w3.org/2000/svg">
<path d="M27.4651 190.806C27.314 189.598 27.1931 189.477 25.9541 189.296C27.1629 189.145 27.2837 189.024 27.4651 187.786C27.6161 188.994 27.737 189.114 28.976 189.296C27.7672 189.447 27.6464 189.598 27.4651 190.806Z" fill="white" fill-opacity="0.1"/>
<path d="M40.7815 24.3301C40.6304 23.122 40.5095 23.0012 39.2705 22.8199C40.4793 22.6688 40.6002 22.548 40.7815 21.3097C40.9326 22.5179 41.0535 22.6386 42.2924 22.8199C41.0837 22.9708 40.9628 23.122 40.7815 24.3301Z" fill="white" fill-opacity="0.1"/>
<path d="M126.229 129.383C126.078 128.174 125.957 128.054 124.718 127.872C125.927 127.721 126.048 127.6 126.229 126.362C126.38 127.57 126.501 127.691 127.74 127.872C126.531 128.023 126.411 128.174 126.229 129.383Z" fill="white" fill-opacity="0.1"/>
<path d="M217.951 38.703C217.951 39.3201 217.45 39.8205 216.832 39.8205C216.215 39.8205 215.714 39.3201 215.714 38.703C215.714 38.0857 216.215 37.5854 216.832 37.5854C217.45 37.5854 217.951 38.0857 217.951 38.703Z" fill="white" fill-opacity="0.1"/>
<path d="M63.8951 89.2197C63.8951 89.8368 63.3943 90.3373 62.7767 90.3373C62.1594 90.3373 61.6587 89.8368 61.6587 89.2197C61.6587 88.6024 62.1594 88.1022 62.7767 88.1022C63.3943 88.1022 63.8951 88.6024 63.8951 89.2197Z" fill="white" fill-opacity="0.1"/>
<path d="M69.2498 192.582C69.2498 193.2 68.7493 193.7 68.1317 193.7C67.5144 193.7 67.0137 193.2 67.0137 192.582C67.0137 191.965 67.5144 191.465 68.1317 191.465C68.7493 191.465 69.2498 191.965 69.2498 192.582Z" fill="white" fill-opacity="0.1"/>
<path d="M84.7234 132.287C84.7234 132.904 84.223 133.405 83.6054 133.405C82.9878 133.405 82.4873 132.904 82.4873 132.287C82.4873 131.67 82.9878 131.17 83.6054 131.17C84.223 131.17 84.7234 131.67 84.7234 132.287Z" fill="white" fill-opacity="0.1"/>
<path d="M285.332 22.1236C284.553 22.9019 283.29 22.9019 282.511 22.1236C281.733 21.345 281.733 20.0828 282.511 19.3044C283.29 18.5258 284.553 18.5258 285.332 19.3044C286.111 20.0828 286.111 21.345 285.332 22.1236Z" fill="white" fill-opacity="0.15"/>
<path d="M166.904 89.3797C166.904 89.9968 166.404 90.4973 165.786 90.4973C165.168 90.4973 164.668 89.9968 164.668 89.3797C164.668 88.7624 165.168 88.2622 165.786 88.2622C166.404 88.2622 166.904 88.7624 166.904 89.3797Z" fill="white" fill-opacity="0.15"/>
<path d="M104.405 15.0826C104.254 13.8744 104.133 13.7536 102.894 13.5724C104.103 13.4212 104.224 13.3004 104.405 12.0621C104.556 13.2703 104.677 13.3911 105.916 13.5724C104.707 13.7232 104.586 13.8744 104.405 15.0826Z" fill="white" fill-opacity="0.1"/>
<path d="M133.196 93.1308C133.044 91.9226 132.924 91.8018 131.685 91.6206C132.893 91.4694 133.014 91.3487 133.196 90.1104C133.347 91.3185 133.468 91.4393 134.706 91.6206C133.498 91.7715 133.377 91.9226 133.196 93.1308Z" fill="white" fill-opacity="0.1"/>
<path d="M767.465 190.806C767.314 189.598 767.193 189.477 765.954 189.296C767.163 189.145 767.284 189.024 767.465 187.786C767.616 188.994 767.737 189.114 768.976 189.296C767.767 189.447 767.646 189.598 767.465 190.806Z" fill="white" fill-opacity="0.1"/>
<path d="M780.781 24.3301C780.63 23.122 780.51 23.0012 779.271 22.8199C780.479 22.6688 780.6 22.548 780.781 21.3097C780.933 22.5179 781.053 22.6386 782.292 22.8199C781.084 22.9708 780.963 23.122 780.781 24.3301Z" fill="white" fill-opacity="0.1"/>
<path d="M866.229 129.383C866.078 128.174 865.957 128.054 864.718 127.872C865.927 127.721 866.048 127.6 866.229 126.362C866.38 127.57 866.501 127.691 867.74 127.872C866.531 128.023 866.411 128.174 866.229 129.383Z" fill="white" fill-opacity="0.1"/>
<path d="M957.951 38.703C957.951 39.3201 957.45 39.8205 956.832 39.8205C956.215 39.8205 955.714 39.3201 955.714 38.703C955.714 38.0857 956.215 37.5854 956.832 37.5854C957.45 37.5854 957.951 38.0857 957.951 38.703Z" fill="white" fill-opacity="0.1"/>
<path d="M803.895 89.2197C803.895 89.8368 803.394 90.3373 802.777 90.3373C802.159 90.3373 801.659 89.8368 801.659 89.2197C801.659 88.6024 802.159 88.1022 802.777 88.1022C803.394 88.1022 803.895 88.6024 803.895 89.2197Z" fill="white" fill-opacity="0.1"/>
<path d="M809.25 192.582C809.25 193.2 808.749 193.7 808.132 193.7C807.514 193.7 807.014 193.2 807.014 192.582C807.014 191.965 807.514 191.465 808.132 191.465C808.749 191.465 809.25 191.965 809.25 192.582Z" fill="white" fill-opacity="0.1"/>
<path d="M824.723 132.287C824.723 132.904 824.223 133.405 823.605 133.405C822.988 133.405 822.487 132.904 822.487 132.287C822.487 131.67 822.988 131.17 823.605 131.17C824.223 131.17 824.723 131.67 824.723 132.287Z" fill="white" fill-opacity="0.1"/>
<path d="M1025.33 22.1236C1024.55 22.9019 1023.29 22.9019 1022.51 22.1236C1021.73 21.345 1021.73 20.0828 1022.51 19.3044C1023.29 18.5258 1024.55 18.5258 1025.33 19.3044C1026.11 20.0828 1026.11 21.345 1025.33 22.1236Z" fill="white" fill-opacity="0.15"/>
<path d="M906.904 89.3797C906.904 89.9968 906.404 90.4973 905.786 90.4973C905.168 90.4973 904.668 89.9968 904.668 89.3797C904.668 88.7624 905.168 88.2622 905.786 88.2622C906.404 88.2622 906.904 88.7624 906.904 89.3797Z" fill="white" fill-opacity="0.15"/>
<path d="M844.405 15.0826C844.254 13.8744 844.133 13.7536 842.894 13.5724C844.103 13.4212 844.224 13.3004 844.405 12.0621C844.556 13.2703 844.677 13.3911 845.916 13.5724C844.707 13.7232 844.586 13.8744 844.405 15.0826Z" fill="white" fill-opacity="0.1"/>
<path d="M873.196 93.1308C873.044 91.9226 872.924 91.8018 871.685 91.6206C872.893 91.4694 873.014 91.3487 873.196 90.1104C873.347 91.3185 873.468 91.4393 874.706 91.6206C873.498 91.7715 873.377 91.9226 873.196 93.1308Z" fill="white" fill-opacity="0.1"/>
<path d="M454.223 395.39C454.374 396.598 454.495 396.719 455.734 396.9C454.525 397.051 454.404 397.172 454.223 398.411C454.072 397.202 453.951 397.082 452.712 396.9C453.921 396.749 454.042 396.598 454.223 395.39Z" fill="white" fill-opacity="0.1"/>
<path d="M537.821 151.605C537.972 152.813 538.093 152.934 539.332 153.115C538.123 153.266 538.002 153.387 537.821 154.625C537.67 153.417 537.549 153.296 536.31 153.115C537.519 152.964 537.64 152.813 537.821 151.605Z" fill="white" fill-opacity="0.1"/>
<path d="M524.505 318.08C524.656 319.289 524.777 319.409 526.016 319.591C524.807 319.742 524.686 319.863 524.505 321.101C524.354 319.893 524.233 319.772 522.994 319.591C524.202 319.44 524.323 319.289 524.505 318.08Z" fill="white" fill-opacity="0.1"/>
<path d="M439.057 213.028C439.208 214.236 439.329 214.357 440.568 214.538C439.359 214.689 439.238 214.81 439.057 216.048C438.906 214.84 438.785 214.72 437.546 214.538C438.755 214.387 438.876 214.236 439.057 213.028Z" fill="white" fill-opacity="0.1"/>
<path d="M563.05 397.293C563.05 396.676 563.55 396.175 564.168 396.175C564.786 396.175 565.286 396.676 565.286 397.293C565.286 397.91 564.786 398.411 564.168 398.411C563.55 398.411 563.05 397.91 563.05 397.293Z" fill="white" fill-opacity="0.1"/>
<path d="M347.335 303.708C347.335 303.09 347.836 302.59 348.454 302.59C349.071 302.59 349.572 303.09 349.572 303.708C349.572 304.325 349.071 304.825 348.454 304.825C347.836 304.825 347.335 304.325 347.335 303.708Z" fill="white" fill-opacity="0.1"/>
<path d="M501.391 253.191C501.391 252.574 501.892 252.073 502.509 252.073C503.127 252.073 503.627 252.574 503.627 253.191C503.627 253.808 503.127 254.308 502.509 254.308C501.892 254.308 501.391 253.808 501.391 253.191Z" fill="white" fill-opacity="0.1"/>
<path d="M496.036 149.828C496.036 149.211 496.537 148.71 497.154 148.71C497.772 148.71 498.272 149.211 498.272 149.828C498.272 150.445 497.772 150.946 497.154 150.946C496.537 150.946 496.036 150.445 496.036 149.828Z" fill="white" fill-opacity="0.1"/>
<path d="M480.563 210.123C480.563 209.506 481.063 209.006 481.681 209.006C482.298 209.006 482.799 209.506 482.799 210.123C482.799 210.741 482.298 211.241 481.681 211.241C481.063 211.241 480.563 210.741 480.563 210.123Z" fill="white" fill-opacity="0.1"/>
<path d="M273.898 385.346C274.906 384.9 276.084 385.355 276.529 386.362C276.975 387.369 276.52 388.546 275.513 388.992C274.506 389.437 273.328 388.983 272.882 387.976C272.436 386.969 272.891 385.792 273.898 385.346Z" fill="white" fill-opacity="0.15"/>
<path d="M428.071 368.674C428.071 367.573 428.964 366.681 430.065 366.681C431.167 366.681 432.06 367.573 432.06 368.674C432.06 369.775 431.167 370.668 430.065 370.668C428.964 370.668 428.071 369.775 428.071 368.674Z" fill="white" fill-opacity="0.15"/>
<path d="M279.954 320.287C280.733 319.509 281.996 319.509 282.775 320.287C283.554 321.066 283.554 322.328 282.775 323.106C281.996 323.885 280.733 323.885 279.954 323.106C279.175 322.328 279.175 321.066 279.954 320.287Z" fill="white" fill-opacity="0.15"/>
<path d="M305.167 369.55C305.167 368.933 305.667 368.433 306.285 368.433C306.902 368.433 307.403 368.933 307.403 369.55C307.403 370.168 306.902 370.668 306.285 370.668C305.667 370.668 305.167 370.168 305.167 369.55Z" fill="white" fill-opacity="0.15"/>
<path d="M398.382 253.031C398.382 252.414 398.883 251.913 399.5 251.913C400.118 251.913 400.618 252.414 400.618 253.031C400.618 253.648 400.118 254.148 399.5 254.148C398.883 254.148 398.382 253.648 398.382 253.031Z" fill="white" fill-opacity="0.15"/>
<path d="M460.881 327.328C461.032 328.536 461.153 328.657 462.392 328.838C461.183 328.989 461.062 329.11 460.881 330.348C460.73 329.14 460.609 329.019 459.37 328.838C460.579 328.687 460.7 328.536 460.881 327.328Z" fill="white" fill-opacity="0.1"/>
<path d="M355.521 375.417C355.672 376.625 355.793 376.746 357.032 376.927C355.823 377.078 355.702 377.199 355.521 378.437C355.37 377.229 355.249 377.108 354.01 376.927C355.219 376.776 355.339 376.625 355.521 375.417Z" fill="white" fill-opacity="0.1"/>
<path d="M432.091 249.28C432.242 250.488 432.363 250.609 433.602 250.79C432.393 250.941 432.272 251.062 432.091 252.3C431.94 251.092 431.819 250.971 430.58 250.79C431.788 250.639 431.909 250.488 432.091 249.28Z" fill="white" fill-opacity="0.1"/>
<path d="M499.783 364.32C499.934 365.528 500.055 365.648 501.294 365.83C500.085 365.981 499.964 366.102 499.783 367.34C499.632 366.132 499.511 366.011 498.272 365.83C499.481 365.679 499.602 365.528 499.783 364.32Z" fill="white" fill-opacity="0.1"/>
<path d="M1194.22 395.39C1194.37 396.598 1194.49 396.719 1195.73 396.9C1194.52 397.051 1194.4 397.172 1194.22 398.411C1194.07 397.202 1193.95 397.082 1192.71 396.9C1193.92 396.749 1194.04 396.598 1194.22 395.39Z" fill="white" fill-opacity="0.1"/>
<path d="M1277.82 151.605C1277.97 152.813 1278.09 152.934 1279.33 153.115C1278.12 153.266 1278 153.387 1277.82 154.625C1277.67 153.417 1277.55 153.296 1276.31 153.115C1277.52 152.964 1277.64 152.813 1277.82 151.605Z" fill="white" fill-opacity="0.1"/>
<path d="M1264.5 318.08C1264.66 319.289 1264.78 319.409 1266.02 319.591C1264.81 319.742 1264.69 319.863 1264.5 321.101C1264.35 319.893 1264.23 319.772 1262.99 319.591C1264.2 319.44 1264.32 319.289 1264.5 318.08Z" fill="white" fill-opacity="0.1"/>
<path d="M1179.06 213.028C1179.21 214.236 1179.33 214.357 1180.57 214.538C1179.36 214.689 1179.24 214.81 1179.06 216.048C1178.91 214.84 1178.78 214.72 1177.55 214.538C1178.75 214.387 1178.88 214.236 1179.06 213.028Z" fill="white" fill-opacity="0.1"/>
<path d="M1303.05 397.293C1303.05 396.676 1303.55 396.175 1304.17 396.175C1304.79 396.175 1305.29 396.676 1305.29 397.293C1305.29 397.91 1304.79 398.411 1304.17 398.411C1303.55 398.411 1303.05 397.91 1303.05 397.293Z" fill="white" fill-opacity="0.1"/>
<path d="M1087.33 303.708C1087.33 303.09 1087.84 302.59 1088.45 302.59C1089.07 302.59 1089.57 303.09 1089.57 303.708C1089.57 304.325 1089.07 304.825 1088.45 304.825C1087.84 304.825 1087.33 304.325 1087.33 303.708Z" fill="white" fill-opacity="0.1"/>
<path d="M1241.39 253.191C1241.39 252.574 1241.89 252.073 1242.51 252.073C1243.13 252.073 1243.63 252.574 1243.63 253.191C1243.63 253.808 1243.13 254.308 1242.51 254.308C1241.89 254.308 1241.39 253.808 1241.39 253.191Z" fill="white" fill-opacity="0.1"/>
<path d="M1236.04 149.828C1236.04 149.211 1236.54 148.71 1237.15 148.71C1237.77 148.71 1238.27 149.211 1238.27 149.828C1238.27 150.445 1237.77 150.946 1237.15 150.946C1236.54 150.946 1236.04 150.445 1236.04 149.828Z" fill="white" fill-opacity="0.1"/>
<path d="M1220.56 210.123C1220.56 209.506 1221.06 209.006 1221.68 209.006C1222.3 209.006 1222.8 209.506 1222.8 210.123C1222.8 210.741 1222.3 211.241 1221.68 211.241C1221.06 211.241 1220.56 210.741 1220.56 210.123Z" fill="white" fill-opacity="0.1"/>
<path d="M1013.9 385.346C1014.91 384.9 1016.08 385.355 1016.53 386.362C1016.98 387.369 1016.52 388.546 1015.51 388.992C1014.51 389.437 1013.33 388.983 1012.88 387.976C1012.44 386.969 1012.89 385.792 1013.9 385.346Z" fill="white" fill-opacity="0.15"/>
<path d="M1168.07 368.674C1168.07 367.573 1168.96 366.681 1170.07 366.681C1171.17 366.681 1172.06 367.573 1172.06 368.674C1172.06 369.775 1171.17 370.668 1170.07 370.668C1168.96 370.668 1168.07 369.775 1168.07 368.674Z" fill="white" fill-opacity="0.15"/>
<path d="M1019.95 320.287C1020.73 319.509 1022 319.509 1022.77 320.287C1023.55 321.066 1023.55 322.328 1022.77 323.106C1022 323.885 1020.73 323.885 1019.95 323.106C1019.18 322.328 1019.18 321.066 1019.95 320.287Z" fill="white" fill-opacity="0.15"/>
<path d="M1045.17 369.55C1045.17 368.933 1045.67 368.433 1046.28 368.433C1046.9 368.433 1047.4 368.933 1047.4 369.55C1047.4 370.168 1046.9 370.668 1046.28 370.668C1045.67 370.668 1045.17 370.168 1045.17 369.55Z" fill="white" fill-opacity="0.15"/>
<path d="M1138.38 253.031C1138.38 252.414 1138.88 251.913 1139.5 251.913C1140.12 251.913 1140.62 252.414 1140.62 253.031C1140.62 253.648 1140.12 254.148 1139.5 254.148C1138.88 254.148 1138.38 253.648 1138.38 253.031Z" fill="white" fill-opacity="0.15"/>
<path d="M1200.88 327.328C1201.03 328.536 1201.15 328.657 1202.39 328.838C1201.18 328.989 1201.06 329.11 1200.88 330.348C1200.73 329.14 1200.61 329.019 1199.37 328.838C1200.58 328.687 1200.7 328.536 1200.88 327.328Z" fill="white" fill-opacity="0.1"/>
<path d="M1095.52 375.417C1095.67 376.625 1095.79 376.746 1097.03 376.927C1095.82 377.078 1095.7 377.199 1095.52 378.437C1095.37 377.229 1095.25 377.108 1094.01 376.927C1095.22 376.776 1095.34 376.625 1095.52 375.417Z" fill="white" fill-opacity="0.1"/>
<path d="M1172.09 249.28C1172.24 250.488 1172.36 250.609 1173.6 250.79C1172.39 250.941 1172.27 251.062 1172.09 252.3C1171.94 251.092 1171.82 250.971 1170.58 250.79C1171.79 250.639 1171.91 250.488 1172.09 249.28Z" fill="white" fill-opacity="0.1"/>
<path d="M1239.78 364.32C1239.93 365.528 1240.05 365.648 1241.29 365.83C1240.09 365.981 1239.96 366.102 1239.78 367.34C1239.63 366.132 1239.51 366.011 1238.27 365.83C1239.48 365.679 1239.6 365.528 1239.78 364.32Z" fill="white" fill-opacity="0.1"/>
<path d="M591.659 598.202C591.81 596.994 591.931 596.873 593.169 596.692C591.961 596.54 591.84 596.42 591.659 595.181C591.508 596.39 591.387 596.51 590.148 596.692C591.356 596.843 591.477 596.994 591.659 598.202Z" fill="white" fill-opacity="0.1"/>
<path d="M675.303 740.362C675.454 739.154 675.574 739.033 676.813 738.852C675.605 738.7 675.484 738.58 675.303 737.341C675.151 738.55 675.031 738.67 673.792 738.852C675 739.003 675.121 739.154 675.303 740.362Z" fill="white" fill-opacity="0.1"/>
<path d="M579.063 732.025C579.214 730.817 579.335 730.696 580.574 730.514C579.365 730.363 579.244 730.243 579.063 729.004C578.912 730.212 578.791 730.333 577.552 730.514C578.761 730.665 578.881 730.817 579.063 732.025Z" fill="white" fill-opacity="0.1"/>
<path d="M414.231 640.139C414.382 638.931 414.503 638.81 415.742 638.629C414.533 638.478 414.413 638.357 414.231 637.119C414.08 638.327 413.959 638.448 412.72 638.629C413.929 638.78 414.05 638.931 414.231 640.139Z" fill="white" fill-opacity="0.1"/>
<path d="M502.944 544.196C503.095 542.988 503.216 542.867 504.455 542.686C503.246 542.534 503.125 542.414 502.944 541.175C502.793 542.383 502.672 542.504 501.433 542.686C502.642 542.836 502.763 542.988 502.944 544.196Z" fill="white" fill-opacity="0.1"/>
<path d="M522.153 590.203C522.153 590.82 522.653 591.32 523.271 591.32C523.888 591.32 524.389 590.82 524.389 590.203C524.389 589.585 523.888 589.085 523.271 589.085C522.653 589.085 522.153 589.585 522.153 590.203Z" fill="white" fill-opacity="0.1"/>
<path d="M356.061 698.068C356.061 698.685 356.562 699.185 357.179 699.185C357.797 699.185 358.297 698.685 358.297 698.068C358.297 697.45 357.797 696.95 357.179 696.95C356.562 696.95 356.061 697.45 356.061 698.068Z" fill="white" fill-opacity="0.1"/>
<path d="M612.774 622.607C612.774 623.224 613.275 623.725 613.892 623.725C614.51 623.725 615.01 623.224 615.01 622.607C615.01 621.99 614.51 621.49 613.892 621.49C613.275 621.49 612.774 621.99 612.774 622.607Z" fill="white" fill-opacity="0.1"/>
<path d="M401.595 540.118C401.595 540.735 402.095 541.235 402.713 541.235C403.33 541.235 403.831 540.735 403.831 540.118C403.831 539.5 403.33 539 402.713 539C402.095 539 401.595 539.5 401.595 540.118Z" fill="white" fill-opacity="0.1"/>
<path d="M639.407 665.886C639.407 666.503 639.907 667.004 640.525 667.004C641.142 667.004 641.643 666.503 641.643 665.886C641.643 665.269 641.142 664.768 640.525 664.768C639.907 664.768 639.407 665.269 639.407 665.886Z" fill="white" fill-opacity="0.1"/>
<path d="M604.618 755.133C604.618 755.751 605.118 756.251 605.736 756.251C606.353 756.251 606.854 755.751 606.854 755.133C606.854 754.516 606.353 754.016 605.736 754.016C605.118 754.016 604.618 754.516 604.618 755.133Z" fill="white" fill-opacity="0.1"/>
<path d="M584.599 646.651C584.599 647.268 585.1 647.769 585.717 647.769C586.335 647.769 586.835 647.268 586.835 646.651C586.835 646.034 586.335 645.534 585.717 645.534C585.1 645.534 584.599 646.034 584.599 646.651Z" fill="white" fill-opacity="0.1"/>
<path d="M600.275 690.136C601.282 690.582 602.46 690.127 602.906 689.12C603.352 688.114 602.897 686.936 601.889 686.49C600.882 686.045 599.704 686.499 599.258 687.506C598.812 688.513 599.268 689.69 600.275 690.136Z" fill="white" fill-opacity="0.15"/>
<path d="M453.571 684.59C453.571 685.691 454.464 686.584 455.565 686.584C456.667 686.584 457.56 685.691 457.56 684.59C457.56 683.489 456.667 682.597 455.565 682.597C454.464 682.597 453.571 683.489 453.571 684.59Z" fill="white" fill-opacity="0.15"/>
<path d="M519.711 651.624C520.489 652.402 521.752 652.402 522.531 651.624C523.31 650.845 523.31 649.583 522.531 648.805C521.752 648.026 520.489 648.026 519.71 648.805C518.932 649.583 518.932 650.845 519.711 651.624Z" fill="white" fill-opacity="0.15"/>
<path d="M591.628 548.997C591.628 549.614 592.128 550.114 592.746 550.114C593.363 550.114 593.864 549.614 593.864 548.997C593.864 548.38 593.363 547.879 592.746 547.879C592.128 547.879 591.628 548.38 591.628 548.997Z" fill="white" fill-opacity="0.15"/>
<path d="M469.251 580.068C469.251 580.685 469.752 581.186 470.369 581.186C470.987 581.186 471.487 580.685 471.487 580.068C471.487 579.451 470.987 578.951 470.369 578.951C469.752 578.951 469.251 579.451 469.251 580.068Z" fill="white" fill-opacity="0.15"/>
<path d="M457.674 754.061C457.825 752.852 457.946 752.732 459.185 752.55C457.976 752.399 457.855 752.278 457.674 751.04C457.523 752.248 457.402 752.369 456.163 752.55C457.371 752.701 457.492 752.852 457.674 754.061Z" fill="white" fill-opacity="0.1"/>
<path d="M370.149 611.148C370.3 609.94 370.421 609.819 371.66 609.638C370.451 609.487 370.33 609.366 370.149 608.128C369.998 609.336 369.877 609.457 368.638 609.638C369.847 609.789 369.967 609.94 370.149 611.148Z" fill="white" fill-opacity="0.1"/>
<path d="M314.511 663.768C314.662 662.56 314.782 662.439 316.021 662.258C314.813 662.107 314.692 661.986 314.511 660.748C314.359 661.956 314.239 662.077 313 662.258C314.208 662.409 314.329 662.56 314.511 663.768Z" fill="white" fill-opacity="0.1"/>
<path d="M1331.66 598.202C1331.81 596.994 1331.93 596.873 1333.17 596.692C1331.96 596.54 1331.84 596.42 1331.66 595.181C1331.51 596.39 1331.39 596.51 1330.15 596.692C1331.36 596.843 1331.48 596.994 1331.66 598.202Z" fill="white" fill-opacity="0.1"/>
<path d="M1415.3 740.362C1415.45 739.154 1415.57 739.033 1416.81 738.852C1415.6 738.7 1415.48 738.58 1415.3 737.341C1415.15 738.55 1415.03 738.67 1413.79 738.852C1415 739.003 1415.12 739.154 1415.3 740.362Z" fill="white" fill-opacity="0.1"/>
<path d="M1319.06 732.025C1319.21 730.817 1319.34 730.696 1320.57 730.514C1319.37 730.363 1319.24 730.243 1319.06 729.004C1318.91 730.212 1318.79 730.333 1317.55 730.514C1318.76 730.665 1318.88 730.817 1319.06 732.025Z" fill="white" fill-opacity="0.1"/>
<path d="M1154.23 640.139C1154.38 638.931 1154.5 638.81 1155.74 638.629C1154.53 638.478 1154.41 638.357 1154.23 637.119C1154.08 638.327 1153.96 638.448 1152.72 638.629C1153.93 638.78 1154.05 638.931 1154.23 640.139Z" fill="white" fill-opacity="0.1"/>
<path d="M1242.94 544.196C1243.1 542.988 1243.22 542.867 1244.46 542.686C1243.25 542.534 1243.13 542.414 1242.94 541.175C1242.79 542.383 1242.67 542.504 1241.43 542.686C1242.64 542.836 1242.76 542.988 1242.94 544.196Z" fill="white" fill-opacity="0.1"/>
<path d="M1262.15 590.203C1262.15 590.82 1262.65 591.32 1263.27 591.32C1263.89 591.32 1264.39 590.82 1264.39 590.203C1264.39 589.585 1263.89 589.085 1263.27 589.085C1262.65 589.085 1262.15 589.585 1262.15 590.203Z" fill="white" fill-opacity="0.1"/>
<path d="M1096.06 698.068C1096.06 698.685 1096.56 699.185 1097.18 699.185C1097.8 699.185 1098.3 698.685 1098.3 698.068C1098.3 697.45 1097.8 696.95 1097.18 696.95C1096.56 696.95 1096.06 697.45 1096.06 698.068Z" fill="white" fill-opacity="0.1"/>
<path d="M1352.77 622.607C1352.77 623.224 1353.27 623.725 1353.89 623.725C1354.51 623.725 1355.01 623.224 1355.01 622.607C1355.01 621.99 1354.51 621.49 1353.89 621.49C1353.27 621.49 1352.77 621.99 1352.77 622.607Z" fill="white" fill-opacity="0.1"/>
<path d="M1141.59 540.118C1141.59 540.735 1142.1 541.235 1142.71 541.235C1143.33 541.235 1143.83 540.735 1143.83 540.118C1143.83 539.5 1143.33 539 1142.71 539C1142.1 539 1141.59 539.5 1141.59 540.118Z" fill="white" fill-opacity="0.1"/>
<path d="M1379.41 665.886C1379.41 666.503 1379.91 667.004 1380.53 667.004C1381.14 667.004 1381.64 666.503 1381.64 665.886C1381.64 665.269 1381.14 664.768 1380.53 664.768C1379.91 664.768 1379.41 665.269 1379.41 665.886Z" fill="white" fill-opacity="0.1"/>
<path d="M1344.62 755.133C1344.62 755.751 1345.12 756.251 1345.74 756.251C1346.35 756.251 1346.85 755.751 1346.85 755.133C1346.85 754.516 1346.35 754.016 1345.74 754.016C1345.12 754.016 1344.62 754.516 1344.62 755.133Z" fill="white" fill-opacity="0.1"/>
<path d="M1324.6 646.651C1324.6 647.268 1325.1 647.769 1325.72 647.769C1326.33 647.769 1326.83 647.268 1326.83 646.651C1326.83 646.034 1326.33 645.534 1325.72 645.534C1325.1 645.534 1324.6 646.034 1324.6 646.651Z" fill="white" fill-opacity="0.1"/>
<path d="M1340.27 690.136C1341.28 690.582 1342.46 690.127 1342.91 689.12C1343.35 688.114 1342.9 686.936 1341.89 686.49C1340.88 686.045 1339.7 686.499 1339.26 687.506C1338.81 688.513 1339.27 689.69 1340.27 690.136Z" fill="white" fill-opacity="0.15"/>
<path d="M1193.57 684.59C1193.57 685.691 1194.46 686.584 1195.56 686.584C1196.67 686.584 1197.56 685.691 1197.56 684.59C1197.56 683.489 1196.67 682.597 1195.56 682.597C1194.46 682.597 1193.57 683.489 1193.57 684.59Z" fill="white" fill-opacity="0.15"/>
<path d="M1259.71 651.624C1260.49 652.402 1261.75 652.402 1262.53 651.624C1263.31 650.845 1263.31 649.583 1262.53 648.805C1261.75 648.026 1260.49 648.026 1259.71 648.805C1258.93 649.583 1258.93 650.845 1259.71 651.624Z" fill="white" fill-opacity="0.15"/>
<path d="M1331.63 548.997C1331.63 549.614 1332.13 550.114 1332.75 550.114C1333.36 550.114 1333.86 549.614 1333.86 548.997C1333.86 548.38 1333.36 547.879 1332.75 547.879C1332.13 547.879 1331.63 548.38 1331.63 548.997Z" fill="white" fill-opacity="0.15"/>
<path d="M1209.25 580.068C1209.25 580.685 1209.75 581.186 1210.37 581.186C1210.99 581.186 1211.49 580.685 1211.49 580.068C1211.49 579.451 1210.99 578.951 1210.37 578.951C1209.75 578.951 1209.25 579.451 1209.25 580.068Z" fill="white" fill-opacity="0.15"/>
<path d="M1197.67 754.061C1197.82 752.852 1197.95 752.732 1199.18 752.55C1197.98 752.399 1197.85 752.278 1197.67 751.04C1197.52 752.248 1197.4 752.369 1196.16 752.55C1197.37 752.701 1197.49 752.852 1197.67 754.061Z" fill="white" fill-opacity="0.1"/>
<path d="M1110.15 611.148C1110.3 609.94 1110.42 609.819 1111.66 609.638C1110.45 609.487 1110.33 609.366 1110.15 608.128C1110 609.336 1109.88 609.457 1108.64 609.638C1109.85 609.789 1109.97 609.94 1110.15 611.148Z" fill="white" fill-opacity="0.1"/>
<path d="M1054.51 663.768C1054.66 662.56 1054.78 662.439 1056.02 662.258C1054.81 662.107 1054.69 661.986 1054.51 660.748C1054.36 661.956 1054.24 662.077 1053 662.258C1054.21 662.409 1054.33 662.56 1054.51 663.768Z" fill="white" fill-opacity="0.1"/>
<path d="M400.301 775.957C400.452 777.165 400.573 777.286 401.812 777.467C400.603 777.618 400.482 777.739 400.301 778.977C400.149 777.769 400.029 777.648 398.79 777.467C399.998 777.316 400.119 777.165 400.301 775.957Z" fill="white" fill-opacity="0.1"/>
<path d="M304.061 784.294C304.212 785.502 304.333 785.623 305.572 785.804C304.363 785.956 304.242 786.076 304.061 787.315C303.91 786.106 303.789 785.986 302.55 785.804C303.759 785.653 303.879 785.502 304.061 784.294Z" fill="white" fill-opacity="0.1"/>
<path d="M104.764 718C104.916 719.208 105.036 719.329 106.275 719.51C105.067 719.661 104.946 719.782 104.764 721.02C104.613 719.812 104.492 719.691 103.253 719.51C104.462 719.359 104.583 719.208 104.764 718Z" fill="white" fill-opacity="0.1"/>
<path d="M81.0593 818.251C81.0593 817.634 81.5598 817.134 82.1773 817.134C82.7949 817.134 83.2954 817.634 83.2954 818.251C83.2954 818.869 82.7949 819.369 82.1773 819.369C81.5598 819.369 81.0593 818.869 81.0593 818.251Z" fill="white" fill-opacity="0.1"/>
<path d="M337.772 893.712C337.772 893.095 338.273 892.594 338.89 892.594C339.508 892.594 340.008 893.095 340.008 893.712C340.008 894.329 339.508 894.829 338.89 894.829C338.273 894.829 337.772 894.329 337.772 893.712Z" fill="white" fill-opacity="0.1"/>
<path d="M364.405 850.433C364.405 849.816 364.905 849.315 365.523 849.315C366.14 849.315 366.641 849.816 366.641 850.433C366.641 851.05 366.14 851.551 365.523 851.551C364.905 851.551 364.405 851.05 364.405 850.433Z" fill="white" fill-opacity="0.1"/>
<path d="M329.616 761.185C329.616 760.568 330.116 760.068 330.734 760.068C331.351 760.068 331.852 760.568 331.852 761.185C331.852 761.803 331.351 762.303 330.734 762.303C330.116 762.303 329.616 761.803 329.616 761.185Z" fill="white" fill-opacity="0.1"/>
<path d="M309.597 869.667C309.597 869.05 310.098 868.55 310.715 868.55C311.333 868.55 311.833 869.05 311.833 869.667C311.833 870.285 311.333 870.785 310.715 870.785C310.098 870.785 309.597 870.285 309.597 869.667Z" fill="white" fill-opacity="0.1"/>
<path d="M325.273 826.183C326.28 825.737 327.458 826.192 327.904 827.199C328.35 828.205 327.895 829.383 326.887 829.828C325.88 830.274 324.702 829.819 324.256 828.813C323.81 827.806 324.266 826.629 325.273 826.183Z" fill="white" fill-opacity="0.15"/>
<path d="M178.569 831.728C178.569 830.627 179.462 829.735 180.564 829.735C181.665 829.735 182.558 830.627 182.558 831.728C182.558 832.829 181.665 833.722 180.564 833.722C179.462 833.722 178.569 832.829 178.569 831.728Z" fill="white" fill-opacity="0.15"/>
<path d="M244.709 864.695C245.487 863.917 246.75 863.917 247.529 864.695C248.308 865.474 248.308 866.736 247.529 867.514C246.75 868.293 245.487 868.293 244.709 867.514C243.93 866.736 243.93 865.474 244.709 864.695Z" fill="white" fill-opacity="0.15"/>
<path d="M182.672 762.258C182.823 763.467 182.944 763.587 184.183 763.769C182.974 763.92 182.853 764.041 182.672 765.279C182.521 764.071 182.4 763.95 181.161 763.769C182.369 763.618 182.49 763.467 182.672 762.258Z" fill="white" fill-opacity="0.1"/>
<path d="M41.511 752.031C41.6621 753.239 41.783 753.36 43.022 753.541C41.8132 753.692 41.6923 753.813 41.511 755.052C41.3599 753.843 41.239 753.723 40.0001 753.541C41.2088 753.39 41.3297 753.239 41.511 752.031Z" fill="white" fill-opacity="0.1"/>
<path d="M1140.3 775.957C1140.45 777.165 1140.57 777.286 1141.81 777.467C1140.6 777.618 1140.48 777.739 1140.3 778.977C1140.15 777.769 1140.03 777.648 1138.79 777.467C1140 777.316 1140.12 777.165 1140.3 775.957Z" fill="white" fill-opacity="0.1"/>
<path d="M1044.06 784.294C1044.21 785.502 1044.33 785.623 1045.57 785.804C1044.36 785.956 1044.24 786.076 1044.06 787.315C1043.91 786.106 1043.79 785.986 1042.55 785.804C1043.76 785.653 1043.88 785.502 1044.06 784.294Z" fill="white" fill-opacity="0.1"/>
<path d="M844.764 718C844.916 719.208 845.036 719.329 846.275 719.51C845.067 719.661 844.946 719.782 844.764 721.02C844.613 719.812 844.492 719.691 843.253 719.51C844.462 719.359 844.583 719.208 844.764 718Z" fill="white" fill-opacity="0.1"/>
<path d="M821.059 818.251C821.059 817.634 821.56 817.134 822.177 817.134C822.795 817.134 823.295 817.634 823.295 818.251C823.295 818.869 822.795 819.369 822.177 819.369C821.56 819.369 821.059 818.869 821.059 818.251Z" fill="white" fill-opacity="0.1"/>
<path d="M1077.77 893.712C1077.77 893.095 1078.27 892.594 1078.89 892.594C1079.51 892.594 1080.01 893.095 1080.01 893.712C1080.01 894.329 1079.51 894.829 1078.89 894.829C1078.27 894.829 1077.77 894.329 1077.77 893.712Z" fill="white" fill-opacity="0.1"/>
<path d="M1104.41 850.433C1104.41 849.816 1104.91 849.315 1105.52 849.315C1106.14 849.315 1106.64 849.816 1106.64 850.433C1106.64 851.05 1106.14 851.551 1105.52 851.551C1104.91 851.551 1104.41 851.05 1104.41 850.433Z" fill="white" fill-opacity="0.1"/>
<path d="M1069.62 761.185C1069.62 760.568 1070.12 760.068 1070.73 760.068C1071.35 760.068 1071.85 760.568 1071.85 761.185C1071.85 761.803 1071.35 762.303 1070.73 762.303C1070.12 762.303 1069.62 761.803 1069.62 761.185Z" fill="white" fill-opacity="0.1"/>
<path d="M1049.6 869.667C1049.6 869.05 1050.1 868.55 1050.72 868.55C1051.33 868.55 1051.83 869.05 1051.83 869.667C1051.83 870.285 1051.33 870.785 1050.72 870.785C1050.1 870.785 1049.6 870.285 1049.6 869.667Z" fill="white" fill-opacity="0.1"/>
<path d="M1065.27 826.183C1066.28 825.737 1067.46 826.192 1067.9 827.199C1068.35 828.205 1067.89 829.383 1066.89 829.828C1065.88 830.274 1064.7 829.819 1064.26 828.813C1063.81 827.806 1064.27 826.629 1065.27 826.183Z" fill="white" fill-opacity="0.15"/>
<path d="M918.569 831.728C918.569 830.627 919.462 829.735 920.564 829.735C921.665 829.735 922.558 830.627 922.558 831.728C922.558 832.829 921.665 833.722 920.564 833.722C919.462 833.722 918.569 832.829 918.569 831.728Z" fill="white" fill-opacity="0.15"/>
<path d="M984.709 864.695C985.487 863.917 986.75 863.917 987.529 864.695C988.308 865.474 988.308 866.736 987.529 867.514C986.75 868.293 985.487 868.293 984.709 867.514C983.93 866.736 983.93 865.474 984.709 864.695Z" fill="white" fill-opacity="0.15"/>
<path d="M922.672 762.258C922.823 763.467 922.944 763.587 924.183 763.769C922.974 763.92 922.853 764.041 922.672 765.279C922.521 764.071 922.4 763.95 921.161 763.769C922.369 763.618 922.49 763.467 922.672 762.258Z" fill="white" fill-opacity="0.1"/>
<path d="M781.511 752.031C781.662 753.239 781.783 753.36 783.022 753.541C781.813 753.692 781.692 753.813 781.511 755.052C781.36 753.843 781.239 753.723 780 753.541C781.209 753.39 781.33 753.239 781.511 752.031Z" fill="white" fill-opacity="0.1"/>
</svg>
